<?xml version="1.0" encoding="utf-8"?>
<!-- Generator: Adobe Illustrator 26.0.1, SVG Export Plug-In . SVG Version: 6.00 Build 0)  -->
<svg version="1.2" baseProfile="tiny" id="Layer_1" xmlns="http://www.w3.org/2000/svg" xmlns:xlink="http://www.w3.org/1999/xlink"
	 x="0px" y="0px" viewBox="0 0 1080 1080" overflow="visible" xml:space="preserve">
<g>
	<linearGradient id="SVGID_1_" gradientUnits="userSpaceOnUse" x1="86.5152" y1="373.1466" x2="391.2585" y2="695.9608">
		<stop  offset="0.121" style="stop-color:#22DCFD"/>
		<stop  offset="0.5369" style="stop-color:#1C91E2"/>
	</linearGradient>
	<path fill-rule="evenodd" fill="url(#SVGID_1_)" d="M118.03,332.93c-5.64,22.05,2.47,41.86,15.41,61.55h56.7
		c19.56,0,34.08,0.81,43.66,2.41c9.64,1.66,18.19,5.05,25.76,10.16c7.58,5.16,13.88,11.99,18.93,20.54
		c5.05,8.55,7.58,18.19,7.58,28.8c0,11.48-3.1,22.09-9.29,31.67c-6.2,9.63-14.63,16.81-25.24,21.63
		c14.97,4.41,26.45,11.87,34.54,22.43c8.03,10.56,12.05,22.95,12.05,37.23c0,11.25-2.58,22.15-7.8,32.76
		c-5.22,10.61-12.33,19.1-21.4,25.47c-9.01,6.31-20.14,10.21-33.39,11.7c-5.98,0.62-18.13,1.09-36.42,1.39
		c-15.65-15.51-30.74-31.62-39.73-41.38h28.24c17.9,0,29.32-0.52,34.13-1.49c7.4-1.37,13.42-4.65,18.07-9.87
		c4.65-5.28,7-12.22,7-20.99c0-7.46-1.78-13.71-5.4-18.88c-3.56-5.16-8.78-8.95-15.55-11.3c-5.02-1.74-14.42-2.85-28.19-3.31
		c-3.56,22.99-15.76,46.09-40.41,66.1c10.56-13.72,16.97-26.6,20.23-38.85l-52.62,0.14c-2.05-3.92-4.04-7.92-5.93-12.02l60.8-0.17
		c0.68-6.31,0.56-12.46-0.2-18.49l-67.91,0.19c-1.26-3.92-2.35-7.93-3.21-12.02l68.74-0.19c-1.63-6.09-3.85-12.06-6.49-17.97
		l-64.44,0.18c-0.12-3.94,0.01-7.94,0.41-12.04l58.08-0.16c-3.35-6.21-7.05-12.35-10.9-18.5l-43.47,0.13
		c1.2-3.95,2.67-7.97,4.45-12.05l31.34-0.08C121.81,419.95,96.8,381.74,118.03,332.93L118.03,332.93z M164.01,435.44
		c13.15,17.5,25.39,35.94,31.2,56.63c7.31-0.14,12.3-0.38,14.95-0.7c8.49-0.98,15.2-3.9,20.08-8.78c4.88-4.88,7.29-11.25,7.29-19.16
		c0-7.63-2.12-13.77-6.31-18.53c-4.19-4.76-10.44-7.63-18.7-8.61c-4.94-0.58-19.11-0.86-42.46-0.86H164.01z"/>
	
		<linearGradient id="SVGID_00000127751825424696411820000007826905533124731829_" gradientUnits="userSpaceOnUse" x1="201.7369" y1="641.2979" x2="255.9371" y2="546.3661">
		<stop  offset="0.121" style="stop-color:#22DCFD"/>
		<stop  offset="0.5369" style="stop-color:#1C91E2"/>
	</linearGradient>
	<path fill-rule="evenodd" fill="url(#SVGID_00000127751825424696411820000007826905533124731829_)" d="M296,586.61
		c-1.3,5.24-3.2,10.39-5.7,15.49c-5.22,10.61-12.33,19.1-21.4,25.47c-9.01,6.31-20.14,10.21-33.39,11.7
		c-5.98,0.62-18.13,1.09-36.42,1.39c-15.65-15.51-30.74-31.62-39.73-41.38h28.24c17.9,0,29.32-0.52,34.13-1.49
		c7.4-1.37,13.42-4.65,18.07-9.87c4.65-5.28,7-12.22,7-20.99c0-7.46-1.78-13.71-5.4-18.88c-3.56-5.16-8.78-8.95-15.55-11.3
		C225.88,536.75,272.54,547.47,296,586.61z"/>
	
		<linearGradient id="SVGID_00000119083120600148659280000003758033941629096098_" gradientUnits="userSpaceOnUse" x1="234.4974" y1="506.417" x2="251.1264" y2="422.4366">
		<stop  offset="0.121" style="stop-color:#22DCFD"/>
		<stop  offset="0.5369" style="stop-color:#1C91E2"/>
	</linearGradient>
	<path fill-rule="evenodd" fill="url(#SVGID_00000119083120600148659280000003758033941629096098_)" d="M282.56,476.49
		c-1.47,4-3.4,7.86-5.79,11.56c-6.2,9.63-14.63,16.81-25.24,21.63c-8.35-2.73-35.58-8.48-54.23-7.21
		c-0.17-1.53-1.25-7.42-2.09-10.39c7.31-0.14,12.3-0.38,14.95-0.7c8.49-0.98,15.2-3.9,20.08-8.78c4.88-4.88,7.29-11.25,7.29-19.16
		c0-7.63-2.12-13.77-6.31-18.53c-4.19-4.76-10.44-7.63-18.7-8.61C228.3,436.93,268.51,439.85,282.56,476.49z"/>
	
		<linearGradient id="SVGID_00000112590147274493680420000009983215336357617304_" gradientUnits="userSpaceOnUse" x1="150.7748" y1="332.477" x2="146.9602" y2="570.4626">
		<stop  offset="0.121" style="stop-color:#22DCFD"/>
		<stop  offset="0.5369" style="stop-color:#1C91E2"/>
	</linearGradient>
	<path fill-rule="evenodd" fill="url(#SVGID_00000112590147274493680420000009983215336357617304_)" d="M157.28,599.54
		c10.56-13.72,16.97-26.6,20.23-38.85l-52.62,0.14c-2.05-3.92-4.04-7.92-5.93-12.02l60.8-0.17c0.68-6.31,0.56-12.46-0.2-18.49
		l-67.91,0.19c-1.26-3.92-2.35-7.93-3.21-12.02l68.74-0.19c-1.63-6.09-3.85-12.06-6.49-17.97l-64.44,0.18
		c-0.12-3.94,0.01-7.94,0.41-12.04l58.08-0.16c-3.35-6.21-7.05-12.35-10.9-18.5l-43.47,0.13c1.2-3.95,2.67-7.97,4.45-12.05
		l31.34-0.08c-23.82-36.89-48.28-74.28-29.41-121.61C91.68,427.5,256.81,497.92,157.28,599.54z"/>
	
		<linearGradient id="SVGID_00000052063364752780113580000018428701006731192244_" gradientUnits="userSpaceOnUse" x1="96.2762" y1="526.3016" x2="250.1527" y2="749.2443">
		<stop  offset="0.121" style="stop-color:#22DCFD"/>
		<stop  offset="0.5369" style="stop-color:#1C91E2"/>
	</linearGradient>
	<path fill-rule="evenodd" fill="url(#SVGID_00000052063364752780113580000018428701006731192244_)" d="M203.04,664.43
		c-11.04-6.06-24.58-13.99-38.71-23.49H91.57v-68.21C65.87,533.68,62.33,486.87,119,437.77C48.69,534.33,161.26,628.7,203.04,664.43
		z"/>
	
		<linearGradient id="SVGID_00000026855622032595606380000018369991005555971213_" gradientUnits="userSpaceOnUse" x1="52.6127" y1="421.3246" x2="191.0381" y2="614.4457">
		<stop  offset="0.121" style="stop-color:#22DCFD"/>
		<stop  offset="0.5369" style="stop-color:#1C91E2"/>
	</linearGradient>
	<path fill-rule="evenodd" fill="url(#SVGID_00000026855622032595606380000018369991005555971213_)" d="M203.04,664.43
		C133.86,617.87,29.43,519.26,119,437.77C48.69,534.33,161.26,628.7,203.04,664.43z"/>
	
		<linearGradient id="SVGID_00000120552094044022341030000003785488783905454761_" gradientUnits="userSpaceOnUse" x1="82.636" y1="412.3831" x2="106.7993" y2="412.3831">
		<stop  offset="0.121" style="stop-color:#22DCFD"/>
		<stop  offset="0.5369" style="stop-color:#1C91E2"/>
	</linearGradient>
	<path fill-rule="evenodd" fill="url(#SVGID_00000120552094044022341030000003785488783905454761_)" d="M94.72,400.3
		c6.67,0,12.08,5.41,12.08,12.08c0,6.67-5.41,12.08-12.08,12.08c-6.67,0-12.08-5.41-12.08-12.08
		C82.64,405.71,88.05,400.3,94.72,400.3z"/>
	
		<linearGradient id="SVGID_00000124856077519714061020000010488013839714120600_" gradientUnits="userSpaceOnUse" x1="75.4308" y1="445.9756" x2="88.4989" y2="445.9756">
		<stop  offset="0.121" style="stop-color:#22DCFD"/>
		<stop  offset="0.5369" style="stop-color:#1C91E2"/>
	</linearGradient>
	<path fill-rule="evenodd" fill="url(#SVGID_00000124856077519714061020000010488013839714120600_)" d="M81.96,439.44
		c3.61,0,6.53,2.93,6.53,6.53c0,3.61-2.93,6.54-6.53,6.54c-3.61,0-6.53-2.93-6.53-6.54C75.43,442.37,78.36,439.44,81.96,439.44z"/>
	
		<linearGradient id="SVGID_00000008864104144597258800000011600731417572693429_" gradientUnits="userSpaceOnUse" x1="209.5654" y1="655.4005" x2="222.6356" y2="655.4005">
		<stop  offset="0.121" style="stop-color:#22DCFD"/>
		<stop  offset="0.5369" style="stop-color:#1C91E2"/>
	</linearGradient>
	<path fill-rule="evenodd" fill="url(#SVGID_00000008864104144597258800000011600731417572693429_)" d="M216.1,648.87
		c3.61,0,6.54,2.93,6.54,6.53c0,3.61-2.93,6.53-6.54,6.53c-3.61,0-6.53-2.93-6.53-6.53C209.57,651.79,212.49,648.87,216.1,648.87z"
		/>
	
		<linearGradient id="SVGID_00000054977613114027540600000016852390498788984463_" gradientUnits="userSpaceOnUse" x1="232.2324" y1="647.6284" x2="241.5522" y2="647.6284">
		<stop  offset="0.121" style="stop-color:#22DCFD"/>
		<stop  offset="0.5369" style="stop-color:#1C91E2"/>
	</linearGradient>
	<path fill-rule="evenodd" fill="url(#SVGID_00000054977613114027540600000016852390498788984463_)" d="M236.89,642.97
		c2.57,0,4.66,2.09,4.66,4.66c0,2.57-2.09,4.66-4.66,4.66c-2.57,0-4.66-2.09-4.66-4.66C232.23,645.06,234.32,642.97,236.89,642.97z"
		/>
</g>
<g>
	
		<linearGradient id="SVGID_00000182525824480900871850000008711263163301385137_" gradientUnits="userSpaceOnUse" x1="329.4313" y1="546.1725" x2="413.7018" y2="635.4401">
		<stop  offset="0.121" style="stop-color:#22DCFD"/>
		<stop  offset="0.5369" style="stop-color:#1C91E2"/>
	</linearGradient>
	<path fill="url(#SVGID_00000182525824480900871850000008711263163301385137_)" d="M332.48,543.29c3.16-1.78,7.11-3.95,12.63-5.72
		c11.65-4.15,20.33-5.13,26.25-5.13c25.07,0,41.25,12.63,41.25,39.67v64.35H383.6l-2.76-7.9c-5.53,5.13-14.41,9.47-26.25,9.47
		c-8.88,0-16.38-2.76-22.11-8.29c-5.53-5.33-8.88-12.44-8.88-22.3c-0.2-10.66,4.74-18.55,11.65-23.88c6.51-5.53,15-7.9,21.71-8.49
		c3.95-0.59,10.86-1.58,21.71-2.17v-3.55c0-7.5-4.15-11.25-12.63-11.25c-8.09,0-16.19,2.76-23.49,7.11L332.48,543.29z
		 M378.67,590.86c-3.55,0.59-6.51,0.79-8.29,0.99c-1.78,0.2-3.16,0.39-3.75,0.59c-8.09,1.58-10.86,5.92-10.86,12.44
		c0,5.13,3.95,9.08,10.66,9.08c4.74,0,9.08-1.97,12.24-4.34V590.86z"/>
	
		<linearGradient id="SVGID_00000029761173793980275230000005572251606163185303_" gradientUnits="userSpaceOnUse" x1="434.7818" y1="547.3385" x2="508.9436" y2="625.898">
		<stop  offset="0.121" style="stop-color:#22DCFD"/>
		<stop  offset="0.5369" style="stop-color:#1C91E2"/>
	</linearGradient>
	<path fill="url(#SVGID_00000029761173793980275230000005572251606163185303_)" d="M438.28,602.71c3.75,3.16,8.69,6.12,15,8.29
		c5.92,2.37,12.24,3.36,18.16,3.36c6.51,0,11.84-1.18,11.84-6.51c0-3.36-5.13-6.51-15.79-9.28c-13.22-3.36-22.5-6.91-28.62-12.24
		c-6.32-4.93-9.08-11.65-9.08-21.52c-0.79-11.45,5.72-19.94,14.21-25.07c8.49-5.33,19.74-7.5,29.21-7.3
		c19.74,0,31.38,5.72,40.46,11.84l-10.26,21.91c-4.15-2.76-9.47-5.53-14.61-7.3c-5.13-1.78-10.07-3.16-14.21-3.16
		c-6.51,0-12.44,0.79-12.44,6.12c0,2.57,1.58,4.74,4.74,6.12c3.16,1.38,7.5,2.96,13.22,4.15c10.07,2.76,17.77,5.72,23.69,9.67
		c5.53,3.55,8.49,7.7,10.26,11.65c1.78,4.14,2.17,8.29,2.17,11.84c0,17.57-11.84,27.44-24.87,30.79
		c-6.51,1.58-13.03,2.37-19.94,2.37c-10.66,0-20.53-1.78-27.83-4.34c-7.7-2.37-13.23-5.53-15.99-7.7L438.28,602.71z"/>
	
		<linearGradient id="SVGID_00000044150011544313993530000001349115864789828012_" gradientUnits="userSpaceOnUse" x1="510.4615" y1="519.5903" x2="624.7313" y2="640.6361">
		<stop  offset="0.121" style="stop-color:#22DCFD"/>
		<stop  offset="0.5369" style="stop-color:#1C91E2"/>
	</linearGradient>
	<path fill="url(#SVGID_00000044150011544313993530000001349115864789828012_)" d="M567.57,540.33c5.72-4.15,13.82-7.9,25.27-7.9
		c24.28,0,36.32,14.41,36.32,39.48v64.55h-34.54v-60.4c0-11.65-4.74-16.78-12.04-16.78c-5.92,0-11.65,3.36-15,6.51v70.66h-34.54
		V498.29h34.54V540.33z"/>
	
		<linearGradient id="SVGID_00000049943781060660309290000003894870758020362143_" gradientUnits="userSpaceOnUse" x1="643.4203" y1="541.4506" x2="710.5397" y2="612.5501">
		<stop  offset="0.121" style="stop-color:#22DCFD"/>
		<stop  offset="0.5369" style="stop-color:#1C91E2"/>
	</linearGradient>
	<path fill="url(#SVGID_00000049943781060660309290000003894870758020362143_)" d="M683.24,545.07
		c4.74-5.72,12.44-11.84,24.08-11.84c4.74,0,9.67,0.59,12.83,2.17L716,563.62c-3.95-0.99-7.7-1.58-11.05-1.58
		c-8.29,0-15.59,5.92-19.74,10.66v63.76h-34.54V534.61h30.6L683.24,545.07z"/>
	
		<linearGradient id="SVGID_00000039818926130025157320000015556308169557340329_" gradientUnits="userSpaceOnUse" x1="731.112" y1="546.1724" x2="815.3825" y2="635.4401">
		<stop  offset="0.121" style="stop-color:#22DCFD"/>
		<stop  offset="0.5369" style="stop-color:#1C91E2"/>
	</linearGradient>
	<path fill="url(#SVGID_00000039818926130025157320000015556308169557340329_)" d="M734.16,543.29c3.16-1.78,7.11-3.95,12.63-5.72
		c11.65-4.15,20.33-5.13,26.25-5.13c25.07,0,41.25,12.63,41.25,39.67v64.35h-29.02l-2.76-7.9c-5.53,5.13-14.41,9.47-26.25,9.47
		c-8.88,0-16.38-2.76-22.11-8.29c-5.53-5.33-8.88-12.44-8.88-22.3c-0.2-10.66,4.74-18.55,11.65-23.88c6.51-5.53,15-7.9,21.71-8.49
		c3.95-0.59,10.86-1.58,21.71-2.17v-3.55c0-7.5-4.15-11.25-12.63-11.25c-8.09,0-16.19,2.76-23.49,7.11L734.16,543.29z
		 M780.35,590.86c-3.55,0.59-6.51,0.79-8.29,0.99c-1.78,0.2-3.16,0.39-3.75,0.59c-8.09,1.58-10.86,5.92-10.86,12.44
		c0,5.13,3.95,9.08,10.66,9.08c4.74,0,9.08-1.97,12.24-4.34V590.86z"/>
</g>
<g>
	
		<linearGradient id="SVGID_00000129911370941477813700000008833812045730936708_" gradientUnits="userSpaceOnUse" x1="857.202" y1="481.5701" x2="1006.1106" y2="639.3087">
		<stop  offset="0.121" style="stop-color:#22DCFD"/>
		<stop  offset="0.3089" style="stop-color:#1C91E2"/>
	</linearGradient>
	<path fill="url(#SVGID_00000129911370941477813700000008833812045730936708_)" d="M1006,639.41h-47.27l-27.21-47.96l-27.44,47.96
		h-46.58l51.42-83.24l-47.96-78.16h46.81l24.44,42.89l24.21-42.89h46.11l-47.73,77.7L1006,639.41z"/>
</g>
</svg>
